<?xml version="1.0" encoding="utf-8"?>
<!-- Generator: Adobe Illustrator 24.0.2, SVG Export Plug-In . SVG Version: 6.00 Build 0)  -->
<svg version="1.1" id="Layer_1" xmlns="http://www.w3.org/2000/svg" xmlns:xlink="http://www.w3.org/1999/xlink" x="0px" y="0px"
	 viewBox="0 0 528 646" style="enable-background:new 0 0 528 646;" xml:space="preserve">
<style type="text/css">
	.st0{fill:#FFFFFF;stroke:#FFFFFF;stroke-width:6.173;stroke-linecap:round;stroke-linejoin:round;stroke-miterlimit:10;}
	.st1{fill:none;stroke:#FFFFFF;stroke-width:6.173;stroke-linecap:round;stroke-linejoin:round;stroke-miterlimit:10;}
</style>
<g>
	<polygon class="st0" points="318.66,488.68 350.13,439.29 395.64,439.29 411.62,432.51 435.83,451.4 435.83,507.07 419.85,539.03 
		390.8,551.62 344.32,551.62 318.66,528.86 	"/>
	<polygon class="st1" points="361.39,282.79 386.45,335.2 401.94,349.24 401.94,373.93 388.26,384.1 333.67,384.1 330.04,360.86 
		357.03,361.1 357.03,341.49 332.77,284.56 	"/>
	<polygon class="st0" points="223.04,296.22 241.92,281.7 279.69,275.89 298.57,279.88 298.57,299.13 272.43,312.93 247.01,318.37 
		223.04,314.38 	"/>
	<polygon class="st0" points="377.25,272.98 384.02,251.2 431.47,242.48 446,251.2 446,267.9 426.39,272.98 396.61,275.89 	"/>
	<polygon class="st1" points="309.53,234.02 294.02,249.16 210.61,253.47 202.8,238.87 249.8,231.9 	"/>
	<polygon class="st1" points="358.05,224.41 395.64,205.69 435.83,197.94 438.73,215.09 404.36,221.18 381.91,229.32 	"/>
	<line class="st1" x1="357.03" y1="341.49" x2="386.45" y2="335.2"/>
	<polygon class="st1" points="191.81,107.16 176.32,231.9 143.4,394.75 223.04,492.06 245.07,551.62 357.03,612.62 435.83,598.1 
		485.21,457.69 485.21,325.03 446,190.43 386.45,98.44 313.92,66.49 238.29,76.17 	"/>
	<line class="st1" x1="84.33" y1="327.45" x2="14.61" y2="398.62"/>
	<polyline class="st1" points="191.81,107.16 102.49,157.51 87.24,103.04 	"/>
	<line class="st1" x1="14.61" y1="275.89" x2="60.39" y2="228.17"/>
	<line class="st1" x1="27.38" y1="262.58" x2="70.58" y2="341.49"/>
	<polyline class="st1" points="14.61,440.02 88.74,444.38 143.4,394.75 135.89,259.18 84.33,327.45 84.33,242.69 180.54,197.94 
		137.59,157.51 191.81,107.16 233.45,38.41 197.62,9.36 102.49,157.51 	"/>
	<line class="st1" x1="245.07" y1="551.62" x2="233.21" y2="598.34"/>
	<line class="st1" x1="113.45" y1="421.94" x2="143.4" y2="466.89"/>
	<polygon class="st1" points="48.98,363.54 97.4,380.47 49.47,442.07 	"/>
	<line class="st1" x1="160.16" y1="415.23" x2="143.4" y2="466.89"/>
	<polygon class="st1" points="66.39,443.06 143.4,466.89 14.61,485.77 	"/>
	<polyline class="st1" points="270.25,43.25 233.45,38.41 146.21,89.43 191.81,107.16 	"/>
	<line class="st1" x1="347.95" y1="28.24" x2="369.98" y2="91.19"/>
	<line class="st1" x1="424.68" y1="157.51" x2="434.86" y2="143.96"/>
	<line class="st1" x1="513.54" y1="328.18" x2="485.21" y2="351.17"/>
	<polyline class="st1" points="473.7,205.72 467.91,265.64 504.7,285.12 485.21,325.03 446,384.1 462.58,464.42 474.31,488.68 	"/>
	<path class="st1" d="M245.07,551.62"/>
	<path class="st1" d="M276.06,427.19"/>
	<path class="st1" d="M202.8,368.6"/>
	<polyline class="st1" points="188.9,618.96 245.07,551.62 277.51,513.37 276.06,427.19 202.8,368.6 151.78,353.29 	"/>
	<line class="st1" x1="85.74" y1="475.34" x2="98.86" y2="593.25"/>
	<line class="st1" x1="85.74" y1="475.34" x2="63.59" y2="548.27"/>
	<polyline class="st1" points="143.4,466.89 150.97,555.52 209.63,475.68 143.4,466.89 92.3,539.51 	"/>
	<path class="st1" d="M148.97,637.55"/>
	<polyline class="st1" points="135.89,259.18 97.4,380.47 88.74,444.38 	"/>
	<polyline class="st1" points="84.33,242.69 64.35,157.51 137.59,157.51 84.33,242.69 39.89,215.73 	"/>
	<polyline class="st1" points="245.07,551.62 162.73,539.51 148.97,637.55 	"/>
	<path class="st1" d="M143.4,394.75"/>
	<path class="st1" d="M185.56,449.7"/>
	<path class="st1" d="M485.21,457.69"/>
	<path class="st1" d="M485.21,358.68"/>
	<line class="st1" x1="202.8" y1="238.87" x2="176.78" y2="228.17"/>
	<line class="st1" x1="438.73" y1="215.09" x2="455.08" y2="221.6"/>
	<polyline class="st1" points="435.83,197.94 446,190.43 490.3,214.88 434.86,143.96 438.73,120.14 	"/>
	<line class="st1" x1="388.26" y1="384.1" x2="399.43" y2="411.79"/>
	<line class="st1" x1="343.89" y1="384.1" x2="336.07" y2="417.3"/>
	<path class="st1" d="M361.39,568.73"/>
	<path class="st1" d="M357.03,612.62"/>
	<path class="st1" d="M428.57,560.33"/>
	<path class="st1" d="M435.83,598.1"/>
	<line class="st1" x1="223.04" y1="314.38" x2="154.53" y2="339.68"/>
	<polyline class="st1" points="223.04,296.22 165.67,284.56 135.89,259.18 118.34,226.87 174.07,243.03 	"/>
	<line class="st1" x1="446" y1="267.9" x2="471.94" y2="279.47"/>
	<line class="st1" x1="446" y1="251.2" x2="461.11" y2="242.31"/>
	<polyline class="st1" points="330.04,360.86 332.77,284.56 298.57,299.13 	"/>
	<line class="st1" x1="202.8" y1="368.6" x2="247.01" y2="318.37"/>
	<path class="st1" d="M301.17,582.19"/>
	<path class="st1" d="M318.66,528.86"/>
	<polygon class="st1" points="318.66,528.86 333.67,565.17 386.45,571.95 428.57,560.33 443.09,531.28 435.83,507.07 419.85,539.03 
		390.8,551.62 344.32,551.62 	"/>
	<line class="st1" x1="426.39" y1="272.98" x2="446" y2="384.1"/>
	<polyline class="st1" points="333.67,384.1 276.06,427.19 272.43,312.93 	"/>
	<path class="st1" d="M321.81,446.55"/>
	<path class="st1" d="M276.06,427.19"/>
	<polyline class="st1" points="277.51,513.37 301.17,582.19 233.21,598.34 148.97,637.55 98.86,593.25 14.61,485.77 14.61,275.89 
		87.24,103.04 197.62,9.36 347.95,28.24 432.2,108.13 490.3,214.88 513.54,328.18 485.21,410.73 	"/>
	<polygon class="st1" points="318.66,488.68 321.81,446.55 336.07,417.3 411.62,410.73 438.73,437.36 435.83,451.4 411.62,432.51 
		395.64,439.29 350.13,439.29 	"/>
	<line class="st1" x1="446" y1="384.1" x2="401.94" y2="373.93"/>
	<path class="st1" d="M411.62,410.73"/>
	<line class="st1" x1="210.61" y1="253.47" x2="188.79" y2="289.26"/>
	<polyline class="st1" points="313.92,66.49 270.25,43.25 347.95,28.24 	"/>
	<line class="st1" x1="432.2" y1="108.13" x2="386.45" y2="98.44"/>
	<path class="st1" d="M374.46,167.51"/>
	<path class="st1" d="M361.39,124.1"/>
	<line class="st1" x1="160.16" y1="557.81" x2="92.3" y2="537.32"/>
	<line class="st1" x1="361.39" y1="282.79" x2="377.25" y2="272.98"/>
</g>
<polyline class="st1" points="309.53,234.02 336.07,221.6 358.05,224.41 "/>
</svg>
